# xmcd CD database file
#
# Track frame offsets:
#	150
#	14185
#	27802
#	41172
#	54805
#	67642
#	78725
#	89707
#	101267
#	113685
#	126722
#	137952
#
# Disc length: 1995 seconds
#
# Revision: 0
# Processed by: cddbd v1.5.1PL2 Copyright (c) Steve Scherf et al.
# Submitted via: CDex 1.51
#
DISCID=a407c90c
DTITLE=Joni James - Little Girl Blue
DYEAR=1992
DGENRE=Jazz
TTITLE0=Little Girl Blue
TTITLE1=I'm Through With Love
TTITLE2=These Foolish Things (Remind Me Of You)
TTITLE3=It's The Talk Of The Town
TTITLE4=In Love In Vain
TTITLE5=Too Late Now
TTITLE6=Autumn Leaves
TTITLE7=That Old Feeling
TTITLE8=I Lay Me Down To Sleep
TTITLE9=When You Wish Upon A Star
TTITLE10=You Never Fall In Love Again
TTITLE11=Where Is That Someone For Me
EXTD=YEAR: 1992
EXTT0=
EXTT1=
EXTT2=
EXTT3=
EXTT4=
EXTT5=
EXTT6=
EXTT7=
EXTT8=
EXTT9=
EXTT10=
EXTT11=
PLAYORDER=
